<mxfile host="app.diagrams.net" agent="Mozilla/5.0 (Windows NT 10.0; Win64; x64) AppleWebKit/537.36 (KHTML, like Gecko) Chrome/136.0.0.0 Safari/537.36" version="27.0.2">
  <diagram name="Page-1" id="sGb5nE2PdGXFM7HC25wV">
    <mxGraphModel dx="786" dy="469" grid="1" gridSize="10" guides="1" tooltips="1" connect="1" arrows="1" fold="1" page="1" pageScale="1" pageWidth="900" pageHeight="1600" math="0" shadow="0">
      <root>
        <mxCell id="0" />
        <mxCell id="1" parent="0" />
        <mxCell id="9rol6uLYBE5580ZDngVl-7" value="" style="rounded=0;whiteSpace=wrap;html=1;" vertex="1" parent="1">
          <mxGeometry x="40" y="230" width="660" height="420" as="geometry" />
        </mxCell>
        <mxCell id="qQBRngb7BBf30NsjLy6r-10" value="" style="rounded=0;whiteSpace=wrap;html=1;" parent="1" vertex="1">
          <mxGeometry x="446" y="250" width="190" height="150" as="geometry" />
        </mxCell>
        <mxCell id="qQBRngb7BBf30NsjLy6r-8" value="" style="rounded=0;whiteSpace=wrap;html=1;" parent="1" vertex="1">
          <mxGeometry x="90" y="250" width="190" height="150" as="geometry" />
        </mxCell>
        <mxCell id="qQBRngb7BBf30NsjLy6r-2" value="" style="verticalLabelPosition=bottom;html=1;verticalAlign=top;align=center;strokeColor=none;fillColor=#00BEF2;shape=mxgraph.azure.virtual_machine;" parent="1" vertex="1">
          <mxGeometry x="516" y="280" width="90" height="70" as="geometry" />
        </mxCell>
        <mxCell id="qQBRngb7BBf30NsjLy6r-1" value="" style="verticalLabelPosition=bottom;html=1;verticalAlign=top;align=center;strokeColor=none;fillColor=#00BEF2;shape=mxgraph.azure.virtual_machine;" parent="1" vertex="1">
          <mxGeometry x="100" y="280" width="90" height="70" as="geometry" />
        </mxCell>
        <mxCell id="qQBRngb7BBf30NsjLy6r-3" value="&lt;div&gt;Master VM - CentOS&lt;/div&gt;192.168.153.129/32" style="text;html=1;align=center;verticalAlign=middle;whiteSpace=wrap;rounded=0;" parent="1" vertex="1">
          <mxGeometry x="120" y="410" width="130" height="30" as="geometry" />
        </mxCell>
        <mxCell id="qQBRngb7BBf30NsjLy6r-4" value="&lt;div&gt;&amp;nbsp;VM1 - CentOS&amp;nbsp;&lt;span style=&quot;background-color: transparent; color: light-dark(rgb(0, 0, 0), rgb(255, 255, 255));&quot;&gt;Server&lt;/span&gt;&lt;/div&gt;192.168.153.130/32" style="text;html=1;align=center;verticalAlign=middle;whiteSpace=wrap;rounded=0;" parent="1" vertex="1">
          <mxGeometry x="493" y="330" width="161" height="110" as="geometry" />
        </mxCell>
        <mxCell id="qQBRngb7BBf30NsjLy6r-7" value="" style="ellipse;whiteSpace=wrap;html=1;" parent="1" vertex="1">
          <mxGeometry x="200" y="290" width="60" height="50" as="geometry" />
        </mxCell>
        <mxCell id="qQBRngb7BBf30NsjLy6r-9" value="&lt;div&gt;OpenSCAP&lt;/div&gt;&lt;div&gt;Server&lt;/div&gt;" style="text;html=1;align=center;verticalAlign=middle;whiteSpace=wrap;rounded=0;" parent="1" vertex="1">
          <mxGeometry x="165" y="350" width="130" height="30" as="geometry" />
        </mxCell>
        <mxCell id="qQBRngb7BBf30NsjLy6r-11" value="" style="ellipse;whiteSpace=wrap;html=1;" parent="1" vertex="1">
          <mxGeometry x="460" y="300" width="50" height="50" as="geometry" />
        </mxCell>
        <mxCell id="qQBRngb7BBf30NsjLy6r-13" value="" style="endArrow=classic;startArrow=classic;html=1;rounded=0;entryX=0;entryY=0.418;entryDx=0;entryDy=0;entryPerimeter=0;exitX=1;exitY=0.422;exitDx=0;exitDy=0;exitPerimeter=0;" parent="1" source="qQBRngb7BBf30NsjLy6r-8" target="qQBRngb7BBf30NsjLy6r-10" edge="1">
          <mxGeometry width="50" height="50" relative="1" as="geometry">
            <mxPoint x="400" y="410" as="sourcePoint" />
            <mxPoint x="450" y="360" as="targetPoint" />
          </mxGeometry>
        </mxCell>
        <mxCell id="qQBRngb7BBf30NsjLy6r-14" value="&lt;div&gt;SSH Connectivity&amp;nbsp;&lt;/div&gt;" style="text;html=1;align=center;verticalAlign=middle;whiteSpace=wrap;rounded=0;" parent="1" vertex="1">
          <mxGeometry x="300" y="290" width="130" height="30" as="geometry" />
        </mxCell>
        <mxCell id="qQBRngb7BBf30NsjLy6r-15" value="&lt;div&gt;OpenSCAP&lt;/div&gt;&lt;div&gt;Client&lt;/div&gt;" style="text;html=1;align=center;verticalAlign=middle;whiteSpace=wrap;rounded=0;" parent="1" vertex="1">
          <mxGeometry x="420" y="353" width="130" height="30" as="geometry" />
        </mxCell>
        <mxCell id="9rol6uLYBE5580ZDngVl-1" value="" style="rounded=0;whiteSpace=wrap;html=1;" vertex="1" parent="1">
          <mxGeometry x="446" y="450" width="190" height="150" as="geometry" />
        </mxCell>
        <mxCell id="9rol6uLYBE5580ZDngVl-2" value="" style="verticalLabelPosition=bottom;html=1;verticalAlign=top;align=center;strokeColor=none;fillColor=#00BEF2;shape=mxgraph.azure.virtual_machine;" vertex="1" parent="1">
          <mxGeometry x="516" y="480" width="90" height="70" as="geometry" />
        </mxCell>
        <mxCell id="9rol6uLYBE5580ZDngVl-3" value="" style="ellipse;whiteSpace=wrap;html=1;" vertex="1" parent="1">
          <mxGeometry x="460" y="500" width="50" height="50" as="geometry" />
        </mxCell>
        <mxCell id="9rol6uLYBE5580ZDngVl-4" value="&lt;div&gt;VM2 -Linux Server&lt;/div&gt;192.168.153.131/32" style="text;html=1;align=center;verticalAlign=middle;whiteSpace=wrap;rounded=0;" vertex="1" parent="1">
          <mxGeometry x="501" y="530" width="134" height="110" as="geometry" />
        </mxCell>
        <mxCell id="9rol6uLYBE5580ZDngVl-5" value="" style="endArrow=classic;startArrow=classic;html=1;rounded=0;entryX=0;entryY=0.5;entryDx=0;entryDy=0;exitX=1;exitY=0.422;exitDx=0;exitDy=0;exitPerimeter=0;" edge="1" parent="1" target="9rol6uLYBE5580ZDngVl-1">
          <mxGeometry width="50" height="50" relative="1" as="geometry">
            <mxPoint x="282" y="314.5" as="sourcePoint" />
            <mxPoint x="448" y="314.5" as="targetPoint" />
          </mxGeometry>
        </mxCell>
        <mxCell id="9rol6uLYBE5580ZDngVl-6" value="&lt;div&gt;OpenSCAP&lt;/div&gt;&lt;div&gt;Client&lt;/div&gt;" style="text;html=1;align=center;verticalAlign=middle;whiteSpace=wrap;rounded=0;" vertex="1" parent="1">
          <mxGeometry x="416" y="560" width="130" height="30" as="geometry" />
        </mxCell>
      </root>
    </mxGraphModel>
  </diagram>
</mxfile>
